REM MD5 34195e368cb60c5e4f6a3b5fe3313219
FILE "Shadow Madness (Spain) (Disc 1).bin" BINARY
  TRACK 01 MODE2/2352
    INDEX 01 00:00:00
  TRACK 02 AUDIO
    INDEX 00 63:20:41
    INDEX 01 63:22:41
  TRACK 03 AUDIO
    INDEX 00 67:27:27
    INDEX 01 67:29:27
REM LEADOUT 70:37:04
